<mxfile host="app.diagrams.net" modified="2024-02-19T10:27:26.176Z" agent="Mozilla/5.0 (X11; Linux x86_64; rv:122.0) Gecko/20100101 Firefox/122.0" version="23.1.4" etag="EOaxvjZJHS2Aen--pKwx" type="github">
  <diagram name="Page-1" id="8Gjuop-z-nH9QJYuThlk">
    <mxGraphModel>
      <root>
        <mxCell id="0" />
        <mxCell id="1" parent="0" />
      </root>
    </mxGraphModel>
  </diagram>
</mxfile>
